PathFileType	4	(X/Y/Z)	walk-thru1-3-TP.trc
DataRate	CameraRate	NumFrames	NumMarkers	Units	OrigDataRate	OrigDataStartFrame	OrigNumFrames
120.00	120.00	       4	60	mm	120.00	448	       597
Frame#	Time	Top.Head			Front.Head			Rear.Head			Jaw			C7			R.Clavicle			L.Clavicle			R.Shoulder			L.Shoulder			R.Scapula			L.Scapula			R.Scap.Inf			R.Biceps.Lateral			R.Elbow			R.Elbow.Medial			R.Forearm			R.Ulna			R.Radius			R.Wrist			R.Thumb.M1			R.Thumb.M2			R.Thumb.M3			R.Finger3.M1			R.Finger3.M2			R.Finger3.M3			L.Biceps.Lateral			L.Elbow			L.Elbow.Medial			L.Forearm			L.Ulna			L.Radius			L.Wrist			L.Thumb.M1			L.Thumb.M2			L.Thumb.M3			L.Finger3.M1			L.Finger3.M2			L.Finger3.M3			V.Sacral			R.ASIS			L.ASIS			R.Thigh			R.Thigh.Front			R.Knee			R.Knee.Medial			R.Shank			R.Ankle			R.Ankle.Medial			R.Heel			R.Toe			R.MedFoot			L.Thigh			L.Knee			L.Knee.Medial			L.Shank			L.Ankle			L.Ankle.Medial			L.Heel			L.Toe			L.MedFoot			V_mid_ASIS			V_R_Knee_JC			V_L_Knee_JC			V_R_Elbow_JC			V_L_Elbow_JC			V_R_Ankle_JC			V_L_Ankle_JC			V_R_Wrist_JC			V_L_Wrist_JC			V_R_ScaTrpz_1stMC_JC			V_R_1stMC_1stPP_JC			V_R_1stPP_1stDP_JC			V_R_LunCap_3rdMC_JC			V_R_3rdMC_3rdPP_JC			V_R_3rdPP_3rdMP_JC			V_R_3rdMP_3rdDP_JC			V_L_ScaTrpz_1stMC_JC			V_L_1stMC_1stPP_JC			V_L_1stPP_1stDP_JC			V_L_LunCap_3rdMC_JC			V_L_3rdMC_3rdPP_JC			V_L_3rdPP_3rdMP_JC			V_L_3rdMP_3rdPP_JC			V_ROOT_JC			V_R_Hip_JC			V_L_Hip_JC			V_R_GlenHum_JC			V_L_GlenHum_JC			V_ForeHead_Ctr			V_Vertex			V_Sagit_Lambdoid_Suture			V_R_FrontoTemp			V_L_FrontoTemporal			V_R_ParietalOccip			V_L_ParietalOcciptal			V_R_Temporal			V_L_Temporal			V_mid_FrontRearHead			V_mid_RLGlenHumCtrs			V_C7_vert			V_C1_vert			V_Mid_Hip			
		X1	Y1	Z1	X2	Y2	Z2	X3	Y3	Z3	X4	Y4	Z4	X5	Y5	Z5	X6	Y6	Z6	X7	Y7	Z7	X8	Y8	Z8	X9	Y9	Z9	X10	Y10	Z10	X11	Y11	Z11	X12	Y12	Z12	X13	Y13	Z13	X14	Y14	Z14	X15	Y15	Z15	X16	Y16	Z16	X17	Y17	Z17	X18	Y18	Z18	X19	Y19	Z19	X20	Y20	Z20	X21	Y21	Z21	X22	Y22	Z22	X23	Y23	Z23	X24	Y24	Z24	X25	Y25	Z25	X26	Y26	Z26	X27	Y27	Z27	X28	Y28	Z28	X29	Y29	Z29	X30	Y30	Z30	X31	Y31	Z31	X32	Y32	Z32	X33	Y33	Z33	X34	Y34	Z34	X35	Y35	Z35	X36	Y36	Z36	X37	Y37	Z37	X38	Y38	Z38	X39	Y39	Z39	X40	Y40	Z40	X41	Y41	Z41	X42	Y42	Z42	X43	Y43	Z43	X44	Y44	Z44	X45	Y45	Z45	X46	Y46	Z46	X47	Y47	Z47	X48	Y48	Z48	X49	Y49	Z49	X50	Y50	Z50	X51	Y51	Z51	X52	Y52	Z52	X53	Y53	Z53	X54	Y54	Z54	X55	Y55	Z55	X56	Y56	Z56	X57	Y57	Z57	X58	Y58	Z58	X59	Y59	Z59	X60	Y60	Z60	

448	3.725	-494.21625	-77.59671	1767.86133	-592.29132	-52.06476	1646.78772	-362.79324	-87.55207	1696.34070	-501.60297	-53.04511	1472.82153	-270.03616	-68.88432	1571.02759	-369.37952	54.65216	1499.09595	-375.96817	-189.47620	1476.69202	-319.27719	160.00261	1493.92957	-328.46237	-294.33975	1471.15112	-203.31448	34.15287	1487.12500	-202.39691	-160.52052	1471.75598	-171.82448	41.13717	1396.85266	-285.48004	201.62277	1356.04553	-223.08177	244.16650	1175.52405	-219.42749	145.90248	1161.56140	-318.62122	242.13408	1110.69897	-260.94116	257.13303	975.72479	-369.81766	241.24409	945.81396	-376.11441	285.11038	914.73004	-384.62225	230.46120	900.37933	-376.73398	197.24980	859.23163	-367.26733	189.28610	808.92377	-386.52081	287.81631	829.49365	-338.38199	244.34366	777.92834	-311.25107	201.48166	815.35022	-264.20615	-315.71536	1327.81433	-191.76607	-322.10800	1161.04590	-179.67377	-224.66783	1141.60352	-269.57187	-320.15121	1074.50549	-201.59111	-337.98129	973.55817	-293.52017	-317.63519	911.64624	-268.85950	-358.28799	879.24017	-313.13599	-316.39682	854.27332	-329.80389	-291.72021	809.04614	-333.47928	-294.11951	758.36926	-286.39511	-366.89246	778.64795	-284.26328	-334.10425	720.94214	-277.35675	-275.63629	723.92700	-149.60100	-54.63593	1119.14563	-335.10303	143.91861	1061.06104	-344.30753	-206.99461	1059.56165	-294.27209	147.53082	679.91626	-363.66306	77.76450	557.00433	-297.13885	135.05627	511.68646	-296.49231	17.50636	506.01810	-203.21106	99.85596	308.32083	-9.26658	130.38356	155.88269	-46.06229	28.79302	158.76888	55.61355	72.31351	147.75352	-136.98198	93.74257	38.77263	-110.77051	63.97128	94.26871	-365.81717	-203.74956	676.44305	-393.93182	-177.73228	537.60211	-378.87961	-70.02807	518.15314	-398.57547	-134.70506	327.50058	-299.35492	-151.04163	81.14474	-347.21255	-58.65562	111.28169	-260.45175	-82.31123	47.70347	-483.33102	-141.93106	42.45113	-419.42447	-98.73547	85.27952																																																																																																																															
449	3.733	-499.89688	-79.56380	1768.08142	-597.62506	-52.95569	1648.13599	-368.70828	-87.77544	1694.83374	-507.69376	-53.62186	1473.08459	-276.08392	-68.72710	1569.32593	-373.93365	53.37062	1499.11670	-381.39462	-190.49905	1476.88904	-323.84674	159.06395	1494.59497	-334.57828	-295.10333	1471.29150	-208.77000	31.16103	1487.67395	-207.53665	-162.44881	1471.91455	-177.31667	39.51986	1397.38501	-290.08685	201.05086	1356.54724	-225.71236	243.37904	1176.64844	-225.00565	144.43192	1162.12732	-320.66931	240.14160	1111.06104	-261.89468	255.36267	975.55371	-373.66400	241.60500	945.38599	-378.49100	285.35583	914.75940	-387.22665	229.97404	902.01337	-382.84988	195.66304	861.24921	-373.94141	187.02919	809.64392	-387.75476	285.37823	828.67242	-342.86032	239.55093	779.22534	-312.93802	201.98650	816.61438	-270.81503	-318.28082	1328.57837	-197.72107	-324.17096	1162.07495	-186.96202	-229.80516	1141.22266	-276.59589	-322.53491	1075.11023	-208.82295	-340.57617	974.04065	-300.91357	-319.40964	912.45807	-276.37299	-359.59467	879.06067	-320.51526	-317.73099	855.11694	-336.87500	-292.06647	809.80151	-342.01730	-293.75220	760.12445	-294.71951	-368.36008	778.97296	-292.51123	-335.43027	721.19769	-285.57147	-277.86203	723.67560	-153.98312	-56.91939	1120.34863	-339.58347	142.15501	1061.71497	-349.92685	-209.18333	1059.79736	-303.62082	147.05994	680.34314	-375.50461	79.08662	557.88593	-308.10562	134.51965	512.08234	-308.64368	18.83198	505.75000	-212.59233	102.65245	310.47449	-16.51434	131.17450	160.31879	-52.92991	28.54841	163.22617	49.40041	72.57360	154.34654	-137.70164	93.67972	39.09378	-115.05475	63.88300	95.73371	-369.19754	-205.72374	676.34528	-395.86145	-179.47932	536.60089	-379.14169	-71.60082	517.77057	-400.99283	-138.02412	327.67654	-299.58838	-151.17839	81.14092	-346.69897	-60.62927	110.54614	-260.56689	-82.25788	47.83245	-483.40491	-141.88962	42.31076	-419.42975	-99.13897	85.37691																																																																																																																															
450	3.742	-505.33365	-81.04250	1768.60938	-602.70740	-54.58089	1647.37439	-373.77731	-88.53139	1695.09692	-512.00885	-55.82364	1473.14832	-278.00504	-71.20252	1570.89954	-378.07681	51.83783	1499.13403	-386.80127	-191.45645	1476.60266	-328.88101	157.55341	1494.70178	-340.71487	-295.87848	1471.73462	-213.32123	29.07014	1487.77991	-214.37875	-165.11041	1472.04419	-182.47890	36.91671	1397.98975	-292.75146	199.32152	1356.82166	-229.34137	240.15730	1177.81799	-232.03580	142.82985	1163.51489	-323.78241	238.34364	1111.44934	-263.88043	252.48969	975.90149	-374.49521	241.19510	945.38318	-379.89035	284.52417	914.41229	-391.24722	229.42563	903.45465	-385.83008	195.22295	862.27362	-379.80231	185.01765	812.31348	-388.70001	284.13742	828.81799	-347.03973	233.41373	780.55725	-320.47064	194.07129	819.01892	-277.87515	-319.53326	1328.20520	-205.94897	-327.22778	1162.21179	-192.32982	-231.37914	1141.88660	-283.36304	-325.11853	1075.49915	-216.84277	-343.25775	974.37598	-308.74857	-321.64810	912.61346	-284.74728	-362.03314	879.26624	-328.18103	-319.19394	855.57947	-345.60068	-293.58618	810.81451	-349.74460	-295.63736	760.57776	-303.82874	-369.82520	778.85339	-301.16367	-337.43079	721.77478	-294.13776	-276.56091	725.35938	-159.38852	-58.38259	1120.82324	-345.44089	141.03319	1062.50391	-355.25763	-209.99873	1060.26855	-312.98029	147.19182	679.96124	-386.19208	80.11765	558.73706	-319.36795	135.45242	512.45917	-321.85178	18.75932	506.12177	-221.64786	102.68605	311.66748	-22.59872	132.14560	165.72076	-58.95787	30.49851	166.80014	41.87708	72.70013	160.46397	-140.30923	93.37717	40.73111	-121.25732	64.44710	98.04365	-371.67181	-208.32405	676.24396	-396.91855	-181.72762	536.15601	-383.27499	-72.40062	517.66931	-401.44223	-137.88974	326.79581	-299.56992	-151.10109	80.88577	-346.92572	-60.46951	110.55751	-260.83932	-82.26276	47.94899	-483.49930	-141.83089	42.39189	-419.57034	-99.13155	85.25265																																																																																																																															
451	3.750	-509.79758	-82.41181	1768.10437	-608.16748	-55.14125	1647.74670	-378.53827	-90.65433	1695.88159	-516.65167	-56.35817	1474.13611	-284.58102	-72.28798	1570.01587	-383.26065	51.02096	1499.59766	-392.92798	-191.84006	1476.88574	-332.41934	156.58987	1495.02148	-347.00912	-297.36740	1472.04590	-218.03383	27.87889	1488.09424	-218.81509	-165.75279	1472.03723	-187.05121	34.01219	1397.90308	-297.21185	197.64136	1356.89929	-232.04938	238.71689	1178.48584	-234.29935	141.83279	1163.73792	-326.82941	238.00818	1111.14502	-266.13751	249.91473	976.20935	-378.28503	240.66019	945.56769	-381.58203	282.97372	914.51886	-392.67850	229.93367	903.25476	-391.66248	195.49123	863.59100	-386.74319	184.53401	811.28699	-392.96036	283.04077	828.82800	-352.95938	231.60858	780.94415	-321.76440	190.88962	819.61700	-285.43802	-322.41107	1327.76099	-213.30603	-329.28909	1162.27832	-199.29179	-234.38345	1142.46057	-291.17419	-327.92090	1076.09375	-224.12419	-346.35754	974.08752	-317.04318	-324.44052	913.35651	-293.41443	-363.94125	879.79852	-337.05832	-320.82941	856.77081	-353.51395	-296.13058	811.82617	-358.59042	-295.71561	761.62354	-313.00073	-372.37149	778.99182	-310.19617	-338.69107	721.91479	-302.81821	-279.27560	725.84772	-165.00656	-59.28011	1120.60181	-348.80667	138.61810	1061.96533	-359.99835	-211.09535	1060.50159	-322.31680	146.43944	680.85193	-397.74249	81.34355	559.85834	-330.34384	134.85898	512.93402	-332.87558	19.43163	505.61621	-231.12794	102.81261	312.84332	-29.51656	131.39850	169.22862	-66.24984	29.69667	171.03468	34.55607	72.34981	165.16519	-143.98222	95.32140	43.69684	-126.69527	65.11920	100.53349	-374.03705	-209.51544	675.45673	-399.44104	-182.27333	535.51129	-385.22241	-73.06359	517.60199	-402.48026	-138.60677	326.17413	-299.54059	-151.06357	80.88344	-346.92572	-60.46951	110.55751	-260.41595	-82.64202	47.84743	-483.59732	-142.83183	42.50040	-419.76657	-99.37981	85.15205																																																																																																																															
